<svg width="500" height="313" xmlns="http://www.w3.org/2000/svg">
<rect width="500" height="313"/>
<g fill="#fff">
<path d="m89.266 43.214c9.1338.010188 18.268-.002437 27.401-.057445 11.447 0 19.933 5.9119 19.933 12.006v59.743c.12186 6.7141-8.4905 10.143-15.307 10.143-3.5156 0-9.7814-.03284-14.564-.03284h-17.463v-81.801zm27.574 63.879v-46.875c0-3.1042-3.2228-3.2169-7.8125-3.2169v27.574 26.761c4.96 0 7.8125-1.0089 7.8125-4.2428z"/>
<path d="m146.25 110.03 5e-4-66.866h20.738v64.959c0 3.9441-.01156 4.9224 3.0728 4.9224 3.0557 0 3.0018-1.0721 3.0018-4.9224l.07153-64.959h20.881c0 21.986-.02873 45.169-.02873 66.866 0 3.7939-.66435 17.003-24.069 17.003-23.52 0-23.668-13.064-23.668-17.003z"/>
<path d="m203.08 43.1c4.6089 0 11.612-.000479 17.067-.000479 3.2402 11.107 8.291 25.378 12.808 37.208v-37.208h17.088v82.052h-17.873c-3.9882-12.035-8.0526-24.046-12.024-37.045v37.045h-17.067v-82.051z"/>
<path d="m259.71 43.214c9.1338.010188 18.268-.002437 27.401-.057445 11.447 0 19.933 5.9119 19.933 12.006v59.743c.12186 6.7141-8.4905 10.143-15.307 10.143-3.5156 0-9.7814-.03284-14.564-.03284h-17.463v-81.801zm27.574 63.879v-46.875c0-3.1042-3.2228-3.2169-7.8125-3.2169v27.574 26.761c4.96 0 7.8125-1.0089 7.8125-4.2428z"/>
<path d="m316.96 43.02h34.933v15.923h-13.973v17.06h12.998v13.973h-12.998v19.01h14.948v15.923h-35.908v-81.889z"/>
<path d="m360.32 125.14v-81.429c11.284 0 19.99.23439 26.7.23439 13.389 0 20.094 3.6111 20.094 21.727 0 14.339-1.8694 13.933-11.049 16.573 4.4611.49969 10.906 4.5679 10.906 8.7738l.14216 34.121h-19.106c0-11.496-.22894-23.784-.22894-35.095-1.3212-1.3813-2.1893-1.9497-6.6616-1.9497v37.045h-20.797zm27.703-51.993c0-4.4214.04062-14.298.04062-14.298-1.0753-1.3668-2.3226-1.9253-4.3463-1.9497h-2.5997v19.172h1.9497c2.1618.039901 3.8635-1.0748 4.9556-2.9246z"/>
<path d="m81.157 214.94v-81.288c9.2647 0 18.698.00016 27.946.00016.80291 8.1305 4.8693 32.876 5.5243 37.37l5.5243-37.37h26.971v81.288h-18.564v-54.897l-7.4323 54.897h-12.998c-1.5853-9.5206-5.8336-37.833-8.2084-53.839 0 15.172.0845 36.733.0845 53.839h-18.848z"/>
<path d="m156.27 133.23h20.68v81.801h-20.68v-81.801z"/>
<path d="m186.03 133.04h36.07v15.923h-14.948v16.248h12.998v14.948h-12.998v34.77h-21.122v-81.889z"/>
<path d="m227.62 133.04h36.07v15.923h-14.948v16.248h12.998v14.948h-12.998v34.77h-21.122v-81.889z"/>
<path d="m269.28 133.1h20.797v65.966h12.998v15.923h-33.796v-81.889z"/>
<path d="m308.51 133.23h20.68v81.801h-20.68v-81.801z"/>
<path d="m338.85 132.57c4.6089 0 11.612-.00048 17.067-.00048 3.2402 11.107 8.291 25.378 12.808 37.208v-37.208h17.088v82.052h-17.873c-3.9882-12.035-8.0526-24.046-12.024-37.045v37.045h-17.067v-82.051z"/>
</g>
<g fill="#b6b4b5">
<rect x="389.99" y="133" width="34.999" height="8.9782"/>
<path d="m390.01 146.01h34.962v7.9705l-14.045 4.1145 14.045-.05744v8.9686h-34.984v-8.9614l14.993-4.0211-14.964-.02873-.00718-7.9848z"/>
<path d="m410.01 191.99v-8.9566h8.9566s1.0561.04061 1.0561-1.9904-1.0155-2.0513-1.0155-2.0513h-22.97s-1.0561.06093-1.0561 2.031c0 1.9701 1.0155 2.0107 1.0155 2.0107h7.9411v8.9465h-8.9566s-5.9305-.03046-5.9305-10.592 5.9305-11.374 5.9305-11.374h25.001s6.032-.16248 6.032 11.008c0 11.17-6.0066 10.967-6.0066 10.967h-9.9975z"/>
</g>
<g fill="#fff">
<path d="m391.95 199.01h14.065v12.988c0 4.6672-7.1116 14.014-14.014 14.014v-5.9508c1.2848 0 3.9807-3.8348 3.9807-5.0774h-4.001l-.03047-15.974z"/>
<path d="m110.44 229.88-.4375.78125c-2.6404 4.7347-6.0787 11.047-8.9062 16.062l-.4375.75.875-.03125 2.9062-.03125h.28125l.15625-.25 2.125-3.75h7.2812l2.0625 3.7188.15625.25h.28125 2.875.875l-.4375-.75-9.2188-16-.4375-.75zm.15625 6.2188 2.1875 4.375h-4.2812c.71493-1.4724 1.411-3.0079 2.0938-4.375z"/>
<path d="m342.12 229.88-.4375.78125c-2.6404 4.7347-6.0787 11.047-8.9062 16.062l-.4375.75.875-.03125 2.9062-.03125h.28125l.15625-.25 2.0938-3.75h7.2812l2.0938 3.7188.15625.25h.28125 2.875.875l-.4375-.75-9.2188-16-.4375-.75zm.15625 6.1875 2.1875 4.4062h-4.2812c.72052-1.4841 1.4055-3.0332 2.0938-4.4062z"/>
<path d="m363.06 230v.5 16.031.5h.5l2.9375.09375h.53125v-.5-9.9062l10.156 10.188.15625.125h.1875 3.0312.5v-.5-16.031-.5h-.5-3.0312-.5v.5 9.875l-10.156-10.219-.125-.15625h-.21875-2.9688-.5z"/>
<path d="m231 230.03c-1.6312 0-3.9398.39741-5.9062 1.6562s-3.5625 3.4523-3.5625 6.8438c0 3.372 1.5119 5.6804 3.4375 7.0625s4.233 1.875 5.9688 1.875c3.3461 0 5.3125-1.0938 5.3125-1.0938l.25-.15625v-.28125-2.375-.90625l-.78125.46875c-1.4399.89027-2.2544 1.4687-4.25 1.4688-.9302 0-2.7992-.49383-4.3125-1.5312s-2.6875-2.5455-2.6875-4.5938c0-2.0733.91848-3.3692 2.1875-4.2188s2.9034-1.1875 4.0938-1.1875c2.5215 0 3.3028.30385 4.9688 1.3438l.78125.5v-.90625-1.9688-.28125l-.25-.125c-1.405-.83203-2.1094-1.5938-5.25-1.5938z"/>
<path d="m391.47 230.03.53125.78125 5.9062 8.7188c0 .34307-1e-5 6.8246 0 7.0625v.5h.5 3.1562.5v-.5-6.7812l5.9375-9 .5-.78125h-.9375-3.0625-.25l-.15625.21875-4.0625 5.4375-4.0625-5.4375-.15625-.21875h-.25-3.125-.96875z"/>
<path d="m155.5 230.44v.5 16.031.5h.5 10.094.5v-.5-1.4688-.5h-.5-7.625v-5.5938h6.5938.5v-.5-1.8438-.5h-.5-6.5938v-3.5625h7.625.5v-.5-1.0625-.5-.5h-.5-10.094-.5z"/>
<path d="m258.5 230.5c-2.4189 0-4.8934.77641-6.7812 2.1562s-3.1875 3.4021-3.1875 5.8125c0 2.3971 1.2882 4.6672 3.1562 6.3125s4.319 2.6875 6.75 2.6875c2.4437 0 4.9431-1.0461 6.8438-2.6875s3.2188-3.9012 3.2188-6.3125c0-2.3961-1.3212-4.3979-3.2188-5.7812s-4.3747-2.1875-6.7812-2.1875zm-.03125 2.5625c1.5936 0 3.3778.60279 4.7188 1.5938s2.2188 2.3198 2.2188 3.8125c0 1.4783-.9102 3.0072-2.25 4.1562s-3.0713 1.9062-4.625 1.9062c-1.5413 0-3.369-.72897-4.75-1.875s-2.3125-2.6961-2.3125-4.2188c0-1.5124.89958-2.8331 2.25-3.8125s3.1378-1.5625 4.75-1.5625z"/>
<path d="m81.5 230.59v.5 14.781.5h.5 1.9375.5v-.5-5.3438h3.5625c.01854.00047.021498.00033.03125 0 .019505-.00065.043047-.02965.0625-.03125.038905-.0032.097872.00841.15625 0 .11676-.01681.25029-.04347.4375-.09375.37442-.10056.87673-.28544 1.375-.625.99654-.67912 1.9688-2.022 1.9688-4.3125 0-2.2642-.67407-3.5273-1.4375-4.1875-.38171-.33008-.76928-.50414-1.0625-.59375-.14661-.0448-.2845-.08052-.375-.09375-.045251-.00662-.066486.00227-.09375 0 0 0-.038984.24928-.0625.5-.001405-7e-5-.031647 0-.03125 0v-.5h-.03125-6.9375-.5zm3 2.9375h2.3125.0625c.017623.00187.043701-.00182.0625 0 .075197.00727.16882.04656.28125.0625.22486.03188.50499.06839.78125.1875.55253.23822 1.0625.61407 1.0625 1.6875 0 1.0577-.58234 1.4927-1.25 1.7812-.33383.14426-.67704.23916-.9375.28125-.13023.02104-.23863.02485-.3125.03125-.036935.0032-.074414-.00118-.09375 0h-.03125s-.01625-.00214-.03125 0h-1.9062v-4.0312z"/>
<path d="m131.47 230.59v.5 14.781.5h.5 1.9375.5v-.5-5.3438h3.5625c.01854.00047.0215.00033.03125 0 .0195-.00065.04305-.02965.0625-.03125.0389-.0032.09787.00841.15625 0 .11676-.01681.28154-.04347.46875-.09375.37442-.10056.84548-.28544 1.3438-.625.99654-.67912 2-2.022 2-4.3125 0-2.2642-.70533-3.5273-1.4688-4.1875-.38171-.33008-.76929-.50414-1.0625-.59375-.14661-.0448-.2845-.08052-.375-.09375-.04525-.00662-.06649.00227-.09375 0 0 0-.01561.25-.03125.5-.00167-8e-5-.03168 0-.03125 0v-.5h-.03125-6.9688-.5zm3 2.9375h2.3438.03125c.02441.00289.03743-.00242.0625 0 .0752.00727.16882.04656.28125.0625.22486.03188.53624.06839.8125.1875.55252.23822 1.0312.61407 1.0312 1.6875 0 1.0577-.58234 1.4927-1.25 1.7812-.33383.14426-.67704.23916-.9375.28125-.13023.02104-.23863.02485-.3125.03125-.03693.0032-.07441-.00118-.09375 0 0 0-.03459-.00399-.0625 0h-1.9062v-4.0312z"/>
<path d="m179.5 230.59v.5 14.781.5h.5 1.9375.5v-.5-5.3438l1.3125-.03125 4 5.6875.125.21875h.28125l2.75-.03125h1.0625l-.65625-.8125-4.4062-5.25c.34453-.10838.73647-.24518 1.1562-.53125.99654-.67912 1.9688-2.022 1.9688-4.3125 0-2.2642-.67408-3.5273-1.4375-4.1875-.38171-.33008-.76929-.50414-1.0625-.59375-.14661-.0448-.2845-.08052-.375-.09375-.04525-.00662-.06649.00227-.09375 0 0 0-.03898.24928-.0625.5-.0014-7e-5-.03165 0-.03125 0v-.5h-.03125-6.9375-.5zm3 2.9375h2.3125.0625c.01762.00187.0437-.00182.0625 0 .0752.00727.16882.04656.28125.0625.22486.03188.50499.06839.78125.1875.55252.23822 1.0625.61407 1.0625 1.6875 0 1.0577-.58234 1.4927-1.25 1.7812-.33383.14426-.67704.23916-.9375.28125-.13023.02104-.23863.02485-.3125.03125-.03693.0032-.07441-.00118-.09375 0 0 0-.03457-.00399-.0625 0h-1.9062v-4.0312z"/>
<path d="m312.47 230.59v.5 14.781.5h.5 1.9688.5v-.5-5.3438h3.5312.03125c.00593-7e-5.02637.00016.03125 0 .0195-.00065.0118-.02965.03125-.03125.0389-.0032.09787.00841.15625 0 .11676-.01681.28154-.04347.46875-.09375.37442-.10056.87673-.28544 1.375-.625.99654-.67912 1.9688-2.022 1.9688-4.3125 0-2.2642-.70533-3.5273-1.4688-4.1875-.38171-.33008-.76929-.50414-1.0625-.59375-.14661-.0448-.25325-.08052-.34375-.09375-.04525-.00662-.09774.00227-.125 0 0 0-.01562.25-.03125.5-.00167-8e-5-.03168 0-.03125 0v-.5h-.03125-6.9688-.5zm3.0312 2.9375h2.3125.03125c.02828.00355.06555-.00273.09375 0 .0752.00727.16882.04656.28125.0625.22486.03188.50499.06839.78125.1875.55252.23822 1.0312.61407 1.0312 1.6875 0 1.0577-.58234 1.4927-1.25 1.7812-.33383.14426-.67704.23916-.9375.28125-.13023.02104-.23863.02485-.3125.03125-.03693.0032-.07441-.00118-.09375 0 0 0-.03459-.00399-.0625 0h-1.875v-4.0312z"/>
<path d="m297.31 231.47-.125.21875-5.6875 7.9062-5.6875-7.875-.15625-.21875h-.25-2.875-.5v.5 14.531.5h.5 1.9688l.53125.03125v-.53125-10.469l6.0625 7.8438.375.5.40625-.5 6.0625-7.875v10.594.5h.5 2.0938.5v-.5-14.656-.5h-.5-2.9375-.28125z"/>
</g>
</svg>
